<svg width="26" height="25" viewBox="0 0 26 25" fill="none" xmlns="http://www.w3.org/2000/svg">
<path d="M9.67212 14.7574C9.41479 14.7574 9.2063 14.5488 9.2063 14.2915V11.6637C9.2063 11.4065 9.41479 11.1978 9.67212 11.1978C9.92957 11.1978 10.1381 11.4065 10.1381 11.6637V14.2915C10.1381 14.5488 9.92957 14.7574 9.67212 14.7574Z" fill="#D1D1D1"/>
<path d="M15.6948 14.7574C15.4377 14.7574 15.2292 14.5488 15.2292 14.2915V11.6637C15.2292 11.4065 15.4377 11.1978 15.6948 11.1978C15.9524 11.1978 16.1611 11.4065 16.1611 11.6637V14.2915C16.1611 14.5488 15.9524 14.7574 15.6948 14.7574Z" fill="#D1D1D1"/>
<path d="M18.7895 12.423C18.539 12.423 18.3322 12.2241 18.3242 11.9717C18.2689 10.2018 17.0198 8.81525 15.481 8.81525H9.8861C8.34716 8.81525 7.0982 10.2018 7.04284 11.9717C7.03448 12.2289 6.8128 12.4305 6.56256 12.4227C6.30542 12.4149 6.10339 12.1998 6.11157 11.9426C6.18292 9.66644 7.84082 7.88354 9.8861 7.88354H15.481C17.5262 7.88354 19.1841 9.66644 19.2554 11.9426C19.2636 12.1998 19.0616 12.4149 18.8044 12.4227C18.7994 12.423 18.7946 12.423 18.7895 12.423Z" fill="#D1D1D1"/>
<path d="M12.6835 7.18212C10.9612 7.18212 9.55981 5.78078 9.55981 4.05828C9.55981 2.33592 10.9612 0.93457 12.6835 0.93457C14.406 0.93457 15.8074 2.33592 15.8074 4.05828C15.8074 5.78078 14.406 7.18212 12.6835 7.18212ZM12.6835 1.86625C11.4747 1.86625 10.4915 2.84953 10.4915 4.05828C10.4915 5.26702 11.4747 6.2504 12.6835 6.2504C13.8922 6.2504 14.8757 5.26702 14.8757 4.05828C14.8757 2.84953 13.8922 1.86625 12.6835 1.86625Z" fill="#D1D1D1"/>
<path d="M9.93058 24.7496C9.71842 24.7496 9.50633 24.6823 9.32121 24.548C8.95109 24.2788 8.80332 23.8241 8.94486 23.389L9.74009 20.9413C9.75419 20.8982 9.73887 20.8508 9.70213 20.8242L7.61979 19.3113C7.24961 19.0424 7.10197 18.5874 7.24327 18.1522C7.38462 17.7173 7.77159 17.4362 8.22904 17.4362H10.8028C10.8483 17.4362 10.8883 17.4071 10.9025 17.3636L11.6978 14.9155C11.8394 14.4806 12.2262 14.1995 12.6838 14.1995C13.1412 14.1995 13.5281 14.4806 13.6695 14.9155L14.4648 17.3634C14.4789 17.4071 14.519 17.4362 14.5644 17.4362H17.1383C17.5959 17.4362 17.9827 17.7173 18.1241 18.1522C18.2655 18.5874 18.1177 19.0424 17.7476 19.3113L15.6654 20.8242C15.6283 20.8508 15.6132 20.8978 15.6274 20.9415L16.4226 23.389C16.564 23.8241 16.4163 24.2792 16.0461 24.548C15.6758 24.8165 15.1977 24.8165 14.8274 24.548L12.7453 23.0352C12.7087 23.0084 12.659 23.0084 12.6219 23.0352L10.5398 24.548C10.3549 24.6823 10.1427 24.7496 9.93058 24.7496ZM8.22904 18.3679C8.21037 18.3679 8.15281 18.3679 8.12931 18.4403C8.10581 18.5128 8.15226 18.5465 8.16758 18.5574L10.2497 20.0702C10.6138 20.3346 10.7652 20.8005 10.6262 21.2291L9.83091 23.6772C9.82499 23.6951 9.80747 23.7494 9.86882 23.7942C9.9304 23.8385 9.9766 23.8048 9.99211 23.7942L12.0744 22.2811C12.4389 22.0167 12.9286 22.0167 13.2929 22.2811L15.3752 23.7939C15.3903 23.8052 15.4367 23.8385 15.4985 23.7942C15.56 23.7494 15.5424 23.6951 15.5365 23.6772L14.7411 21.2294C14.6021 20.8008 14.7535 20.335 15.1178 20.0702L17.1999 18.5574C17.2153 18.5465 17.2616 18.5128 17.2381 18.4403C17.2146 18.3679 17.1571 18.3679 17.1383 18.3679H14.5644C14.1139 18.3679 13.7178 18.08 13.5787 17.6511L12.7834 15.2036C12.7776 15.1858 12.7599 15.1312 12.6838 15.1312C12.6075 15.1312 12.5899 15.1858 12.5839 15.2036L11.7886 17.6514C11.6498 18.0797 11.2535 18.3679 10.8028 18.3679H8.22904Z" fill="#D1D1D1"/>
<path d="M22.9245 21.7836C22.7275 21.7836 22.5309 21.7211 22.3591 21.5964L20.5487 20.2815C20.5383 20.2736 20.5241 20.2738 20.5136 20.2811L18.7035 21.5964C18.3598 21.8457 17.9159 21.8461 17.5724 21.5962C17.2289 21.3467 17.092 20.9248 17.2231 20.5208C17.3024 20.276 17.5658 20.1425 17.81 20.2218C18.0549 20.3011 18.1884 20.5641 18.1091 20.8088C18.1049 20.8223 18.1022 20.8295 18.12 20.8424C18.1381 20.8552 18.1445 20.8506 18.1557 20.8424L19.9657 19.5273C20.3039 19.2817 20.7582 19.2815 21.0968 19.5277L22.9067 20.8424C22.9176 20.851 22.9247 20.856 22.9421 20.8424C22.9599 20.8298 22.9577 20.8223 22.953 20.8088L22.2619 18.6809C22.1327 18.2837 22.2731 17.8516 22.6108 17.6055L24.4213 16.2903C24.4328 16.282 24.4391 16.2775 24.4323 16.2565C24.4255 16.2356 24.4176 16.2356 24.4035 16.2356H22.1662C21.7482 16.2356 21.3805 15.9684 21.2511 15.571L20.5597 13.4432C20.5553 13.4296 20.5531 13.4224 20.5312 13.4224C20.5092 13.4224 20.5068 13.4296 20.5024 13.4432L19.811 15.571C19.6821 15.9684 19.3141 16.2356 18.8962 16.2356H16.6589C16.6447 16.2356 16.6369 16.2356 16.63 16.2565C16.6235 16.2775 16.6296 16.282 16.6408 16.2903C16.849 16.4415 16.8954 16.7327 16.7441 16.941C16.5934 17.1484 16.3022 17.1958 16.0934 17.0441C15.7502 16.7946 15.613 16.3727 15.7441 15.9686C15.8752 15.5647 16.2343 15.3038 16.6589 15.3038H18.8962C18.9096 15.3038 18.9211 15.2953 18.925 15.283L19.6164 13.1552C19.7475 12.7515 20.1069 12.4906 20.5312 12.4906C20.956 12.4906 21.3149 12.7515 21.4462 13.1552L22.1374 15.283C22.1415 15.2953 22.153 15.3038 22.1662 15.3038H24.4035C24.828 15.3038 25.1872 15.5647 25.3183 15.9686C25.4496 16.3727 25.3124 16.7946 24.9689 17.0441L23.1589 18.3591C23.1481 18.3667 23.144 18.3804 23.1481 18.3928L23.8393 20.5208C23.9706 20.9244 23.8334 21.3467 23.4899 21.5962C23.3183 21.7211 23.1215 21.7836 22.9245 21.7836Z" fill="#D1D1D1"/>
<path d="M7.22946 21.7836C7.03264 21.7836 6.83577 21.7211 6.66413 21.5964L4.854 20.2815C4.84337 20.2736 4.82896 20.2738 4.81866 20.2811L3.00848 21.5964C2.66487 21.8457 2.22083 21.8461 1.87751 21.5962C1.53404 21.3467 1.39698 20.9248 1.528 20.5208L2.21948 18.3928C2.2236 18.3804 2.21902 18.3667 2.20825 18.3589L0.398385 17.0441C0.0551009 16.7946 -0.0821366 16.3727 0.0490198 15.9686C0.18019 15.5647 0.539287 15.3038 0.963901 15.3038H3.20122C3.21442 15.3038 3.22593 15.2953 3.22986 15.283L3.9212 13.1552C4.05255 12.7515 4.41179 12.4906 4.83621 12.4906C5.26083 12.4906 5.61992 12.7515 5.75109 13.1552L6.44242 15.283C6.4464 15.2953 6.45805 15.3038 6.47125 15.3038H8.70858C9.13318 15.3038 9.49229 15.5647 9.62345 15.9686C9.75461 16.3727 9.61736 16.7946 9.27389 17.0441C9.06542 17.1958 8.77409 17.1484 8.62322 16.941C8.47203 16.7327 8.51826 16.4415 8.72649 16.2903C8.73787 16.282 8.7441 16.2775 8.7374 16.2565C8.73057 16.2356 8.72271 16.2356 8.70858 16.2356H6.47125C6.05319 16.2356 5.68543 15.9684 5.55623 15.571L4.8649 13.4432C4.8605 13.4296 4.85821 13.4224 4.83621 13.4224C4.81408 13.4224 4.81165 13.4296 4.80729 13.4432L4.1161 15.571C3.9869 15.9684 3.61928 16.2356 3.20122 16.2356H0.963901C0.949766 16.2356 0.941902 16.2356 0.935067 16.2565C0.92838 16.2775 0.934602 16.282 0.945975 16.2903L2.75616 17.6053C3.0943 17.8511 3.23473 18.2834 3.10567 18.6809L2.41419 20.8088C2.40979 20.8223 2.40736 20.8295 2.42509 20.8424C2.44316 20.8552 2.44966 20.8506 2.46089 20.8424L4.27075 19.5273C4.60893 19.2817 5.0634 19.2815 5.40187 19.5277L7.21172 20.8424C7.22282 20.851 7.22959 20.856 7.2472 20.8424C7.26493 20.8298 7.26254 20.8223 7.25828 20.8088C7.17868 20.5641 7.31257 20.3015 7.55716 20.2218C7.80194 20.1428 8.06455 20.276 8.14419 20.5208C8.2755 20.9244 8.13844 21.3467 7.79511 21.5962C7.62328 21.7211 7.42632 21.7836 7.22946 21.7836Z" fill="#D1D1D1"/>
<path d="M20.5685 25H4.79883C4.54156 25 4.33301 24.7913 4.33301 24.5342C4.33301 24.2769 4.54156 24.0684 4.79883 24.0684H20.5685C20.8258 24.0684 21.0343 24.2769 21.0343 24.5342C21.0343 24.7913 20.8258 25 20.5685 25Z" fill="#383838"/>
</svg>
